<svg xmlns="http://www.w3.org/2000/svg" viewBox="0 0 800 450" role="img" aria-label="Illustration of neighbors handing over a box of groceries in front of a house">
  <rect width="800" height="450" fill="#f4f1ec"/>
  <circle cx="400" cy="200" r="152" fill="#e7e0d5"/>
  <path d="M240 214 L400 104 L560 214 V368 H240 Z" fill="#ffffff" stroke="#cfc4b4" stroke-width="4"/>
  <path d="M216 220 L400 92 L584 220" fill="none" stroke="#c0553f" stroke-width="18" stroke-linejoin="round" stroke-linecap="round"/>
  <rect x="366" y="278" width="68" height="90" fill="#0b6a58"/>
  <circle cx="420" cy="324" r="5" fill="#ffd28a"/>
  <rect x="272" y="248" width="60" height="52" fill="#cfe3ee" stroke="#cfc4b4" stroke-width="4"/>
  <rect x="468" y="248" width="60" height="52" fill="#cfe3ee" stroke="#cfc4b4" stroke-width="4"/>
  <g>
    <rect x="326" y="356" width="148" height="94" rx="8" fill="#d8a05f"/>
    <rect x="326" y="356" width="148" height="20" rx="6" fill="#c08a4c"/>
    <circle cx="368" cy="348" r="18" fill="#c0553f"/>
    <circle cx="404" cy="342" r="16" fill="#0f8a72"/>
    <path d="M432 352 q16 -26 32 0 z" fill="#f0a848"/>
  </g>
  <g fill="#1b2733">
    <circle cx="234" cy="284" r="22"/>
    <path d="M206 400 v-70 a28 28 0 0 1 56 0 v70 Z"/>
    <circle cx="566" cy="284" r="22"/>
    <path d="M538 400 v-70 a28 28 0 0 1 56 0 v70 Z"/>
  </g>
</svg>
