<svg xmlns="http://www.w3.org/2000/svg" viewBox="0 0 800 450" role="img" aria-label="Illustration of volunteers planting trees on rolling hills">
  <defs>
    <linearGradient id="gvSky" x1="0" y1="0" x2="0" y2="1">
      <stop offset="0" stop-color="#dff1ea"/>
      <stop offset="1" stop-color="#f2f5f7"/>
    </linearGradient>
  </defs>
  <rect width="800" height="450" fill="url(#gvSky)"/>
  <circle cx="648" cy="96" r="44" fill="#ffd28a"/>
  <path d="M0 318 C 150 250 250 330 400 300 C 550 270 660 320 800 286 V450 H0 Z" fill="#0b6a58"/>
  <path d="M0 360 C 170 316 300 386 460 356 C 620 326 700 372 800 350 V450 H0 Z" fill="#0f8a72"/>
  <g fill="#0b6a58">
    <path d="M170 330 L206 244 L242 330 Z"/>
    <path d="M182 292 L206 236 L230 292 Z"/>
  </g>
  <rect x="200" y="330" width="12" height="42" fill="#7a5b3a"/>
  <g fill="#116f5c">
    <path d="M556 336 L590 258 L624 336 Z"/>
    <path d="M567 300 L590 250 L613 300 Z"/>
  </g>
  <rect x="584" y="336" width="12" height="38" fill="#7a5b3a"/>
  <g fill="#1b2733">
    <circle cx="372" cy="286" r="20"/>
    <path d="M348 386 v-64 a24 24 0 0 1 48 0 v64 Z"/>
    <circle cx="452" cy="296" r="18"/>
    <path d="M430 388 v-58 a22 22 0 0 1 44 0 v58 Z"/>
  </g>
  <path d="M404 330 q28 -34 56 -8" stroke="#1b2733" stroke-width="8" fill="none" stroke-linecap="round"/>
  <g fill="#0f8a72">
    <path d="M496 388 q22 -30 44 0 Z"/>
    <rect x="516" y="384" width="6" height="22" fill="#7a5b3a"/>
  </g>
</svg>
